<?xml version="1.0" encoding="UTF-8"?>
<svg version="1.1" xmlns="http://www.w3.org/2000/svg" width="516" height="560">
<path d="M0 0 C1.08125526 0.12926254 2.16251053 0.25852509 3.2765311 0.39170468 C6.86513054 0.82247792 10.45240548 1.26340098 14.0397644 1.70437622 C16.6261885 2.01700179 19.2126876 2.32900734 21.79925537 2.64044189 C28.07424269 3.39716393 34.34828058 4.1614922 40.6220199 4.92848478 C47.93820346 5.82264199 55.25529111 6.70929144 62.57241736 7.59569539 C75.63256885 9.17808561 88.69186554 10.76742253 101.7507019 12.36062622 C114.40435253 13.90439178 127.05862078 15.44296209 139.71359253 16.9758606 C140.49335265 17.07031365 141.27311277 17.1647667 142.07650198 17.26208197 C142.85495348 17.35637645 143.63340497 17.45067094 144.4354459 17.54782283 C158.87097458 19.29646412 173.30587713 21.0502276 187.74051354 22.80621793 C192.83337503 23.42564437 197.92642315 24.04352127 203.01953506 24.66088486 C209.88023955 25.49261273 216.74040618 26.32866519 223.6002388 27.16755295 C226.11469984 27.47443924 228.62932041 27.78002163 231.14411163 28.08419037 C234.58236412 28.50028741 238.01999809 28.9211739 241.45751953 29.34326172 C242.44741603 29.46194638 243.43731253 29.58063104 244.45720589 29.70291221 C265.78274426 32.34423765 265.78274426 32.34423765 272.17208862 39.57595825 C275.89648744 44.60921722 276.72689423 48.15864012 276.74894714 54.2936554 C276.75262383 54.95619318 276.75630052 55.61873096 276.76008862 56.30134565 C276.77111953 58.52594765 276.7749683 60.75050292 276.77877808 62.97512817 C276.78504324 64.56848295 276.79169009 66.16183627 276.7986908 67.75518799 C276.8197294 72.9923094 276.83009379 78.22943109 276.84005737 83.46658325 C276.84410517 85.27019071 276.8482221 87.07379802 276.85240746 88.87740517 C276.8714596 97.35204035 276.88568993 105.82666682 276.89401942 114.3013193 C276.90378884 124.07928906 276.93010049 133.85703226 276.97052032 143.63492221 C277.00069853 151.19513203 277.01548997 158.75527698 277.01880044 166.31554586 C277.02114922 170.82964428 277.03008699 175.34350068 277.05526161 179.85753441 C277.07857689 184.10687336 277.08276178 188.35581152 277.07250023 192.60519791 C277.07200558 194.16119662 277.07830523 195.71721528 277.09205627 197.27315331 C277.16829367 206.41407472 277.06052546 213.42157271 270.98641968 220.74665833 C266.58225607 224.32857105 262.09945824 226.73354035 256.88302612 228.94314575 C256.04504486 229.30994446 255.2070636 229.67674316 254.34368896 230.05465698 C251.60128323 231.25178551 248.85171997 232.43141821 246.10177612 233.6111145 C244.16458958 234.45298169 242.2279105 235.29601746 240.29171753 236.14016724 C236.32273515 237.86828963 232.35086329 239.58948109 228.37619019 241.30447388 C223.0888215 243.58621282 217.80854187 245.8838159 212.53146362 248.1892395 C210.92747128 248.88978681 209.32346747 249.59030786 207.7194519 250.290802 C206.54337372 250.80441284 206.54337372 250.80441284 205.34353638 251.32839966 C202.18164252 252.708064 199.01822114 254.08420574 195.85479736 255.46035767 C184.30161821 260.48669394 172.7626138 265.54512333 161.22677612 270.6111145 C160.34979065 270.99615143 159.47280518 271.38118835 158.56924438 271.77789307 C156.07214194 272.87433952 153.57519801 273.97114593 151.07833862 275.06814575 C150.35189148 275.38720886 149.62544434 275.70627197 148.87698364 276.03500366 C147.48907376 276.6450991 146.10295955 277.25929869 144.71882629 277.87791443 C143.21669853 278.53118621 141.70029122 279.15205318 140.17527771 279.74995422 C135.41049371 281.63302449 135.41049371 281.63302449 131.76071167 285.0942688 C131.42338013 285.92869507 131.08604858 286.76312134 130.73849487 287.62283325 C130.13037964 289.02988525 130.13037964 289.02988525 129.50997925 290.46536255 C129.10714722 291.46221069 128.70431519 292.45905884 128.28927612 293.4861145 C121.24661464 309.4510667 111.77563013 322.37988412 99.60177612 334.7986145 C98.67442156 335.7645 97.74733983 336.73064751 96.82052612 337.697052 C64.97542354 370.3472274 20.1777628 386.1396171 -24.89822388 386.9861145 C-74.85347896 386.43412273 -118.73206788 367.31740438 -153.99588013 332.212677 C-174.99887585 310.04469736 -188.79855376 280.9087627 -193.39822388 250.7986145 C-193.67279419 249.00810669 -193.67279419 249.00810669 -193.95291138 247.181427 C-198.34468786 210.53507656 -188.84189917 171.33708798 -166.39822388 141.7986145 C-165.75369263 140.94654419 -165.10916138 140.09447388 -164.44509888 139.21658325 C-135.24350703 101.79485827 -93.53642023 78.64600774 -46.39822388 72.7986145 C-45.07822388 72.7986145 -43.75822388 72.7986145 -42.39822388 72.7986145 C-42.40257446 71.83141479 -42.40692505 70.86421509 -42.41140747 69.8677063 C-42.43963307 60.78486721 -42.34881797 51.71318454 -42.08084106 42.63381958 C-42.04227949 41.28007956 -42.00747746 39.92622747 -41.97634888 38.57229614 C-41.37422094 12.40168362 -41.37422094 12.40168362 -35.28103638 5.4548645 C-24.93500571 -3.64620811 -12.74923893 -1.59322435 0 0 Z " fill="#050504" transform="translate(215.39822387695313,18.201385498046875)"/>
<path d="M0 0 C0.09828599 14.7870978 -0.05657946 29.52570842 -0.68310547 44.29959106 C-1.85751946 72.21269709 -2.66882228 100.13759614 -3.5 128.0625 C-3.75613768 136.6601674 -4.01253408 145.257827 -4.26953125 153.85546875 C-4.30071548 154.899734 -4.33189972 155.94399925 -4.36402893 157.01990891 C-4.76740445 170.51008532 -5.18657169 183.99958243 -5.63671875 197.48828125 C-5.66089497 198.21419275 -5.68507118 198.94010426 -5.70998001 199.68801308 C-5.94906105 206.8586623 -6.1926041 214.02914337 -6.44140625 221.19946289 C-8.36736289 240.66556202 -8.36736289 240.66556202 -4 259 C-3.67 259.99 -3.34 260.98 -3 262 C-1.26857146 263.15922128 -1.26857146 263.15922128 1 264 C1.886875 264.391875 2.77375 264.78375 3.6875 265.1875 C13.20451564 267.52186233 21.20588026 262.98969964 29.57675171 259.00241089 C32.65731193 257.53510702 35.75087898 256.09622508 38.8440094 254.65565491 C40.46269467 253.90163414 42.08072006 253.14619531 43.69810486 252.38938904 C51.39740931 248.79268728 59.1613491 245.35028811 66.93914795 241.92749023 C79.09218741 236.57628628 91.17830206 231.1042374 103.1875 225.4375 C113.77475722 220.4421075 124.38097046 215.49342577 135.03262329 210.63650513 C136.4983395 209.96788646 137.96349929 209.29804656 139.42807007 208.62692261 C141.45566999 207.69827746 143.4852954 206.77422148 145.515625 205.8515625 C147.25247559 205.05999756 147.25247559 205.05999756 149.02441406 204.25244141 C151.37815056 203.26174004 153.50813922 202.50279738 156 202 C151.24298149 215.3247669 141.48025743 226.76258391 132 237 C130.69095703 238.43279297 130.69095703 238.43279297 129.35546875 239.89453125 C117.74987375 252.05691641 103.96574586 261.453902 89 269 C88.38253906 269.31275879 87.76507813 269.62551758 87.12890625 269.94775391 C55.12293151 285.80695122 14.85696439 291.47249861 -20 283 C-20.80920898 282.80664062 -21.61841797 282.61328125 -22.45214844 282.4140625 C-57.22222559 273.85689957 -88.94757757 255.6128205 -111 227 C-111.73992187 226.08734375 -112.47984375 225.1746875 -113.2421875 224.234375 C-130.71151701 202.11058746 -140.18864094 174.06063556 -140.18530273 145.99633789 C-140.18746879 143.96673949 -140.20560979 141.93770428 -140.22460938 139.90820312 C-140.35592549 109.88774005 -130.09661006 81.18438282 -111 58 C-110.5369043 57.43152344 -110.07380859 56.86304688 -109.59667969 56.27734375 C-83.74376472 24.67364836 -41.83704082 -0.28725381 0 0 Z " fill="#FDFDFD" transform="translate(175,105)"/>
<path d="M0 0 C25.13756472 -0.61813684 48.81341274 0.94154724 72.6875 9.6875 C73.88761719 10.12449219 75.08773437 10.56148437 76.32421875 11.01171875 C77.64873047 11.50091797 77.64873047 11.50091797 79 12 C78.0253479 13.05078735 78.0253479 13.05078735 77.03100586 14.12280273 C74.682916 17.4491928 74.49673277 19.01831939 74.50390625 23.03515625 C74.50293945 24.74348633 74.50293945 24.74348633 74.50195312 26.48632812 C74.52193359 27.66646484 74.54191406 28.84660156 74.5625 30.0625 C74.55541016 31.24650391 74.54832031 32.43050781 74.54101562 33.65039062 C74.43993632 39.6546443 74.43993632 39.6546443 76.06420898 45.33569336 C78.9350074 47.80387759 81.79386803 47.57321802 85.40625 47.53125 C86.12735962 47.5350769 86.84846924 47.53890381 87.59143066 47.54284668 C89.11451617 47.54556603 90.63764836 47.53820293 92.16064453 47.52148438 C94.49226981 47.50007099 96.82081432 47.52128084 99.15234375 47.546875 C100.6328193 47.54423172 102.11329294 47.53910674 103.59375 47.53125 C104.2906897 47.53934692 104.98762939 47.54744385 105.70568848 47.55578613 C108.9322616 47.4932719 110.57421642 47.41582404 112.9309082 45.11425781 C114.13550011 42.73203221 114.49224608 40.90545325 114.6875 38.25 C114.75324219 37.45078125 114.81898438 36.6515625 114.88671875 35.828125 C114.92410156 35.22484375 114.96148437 34.6215625 115 34 C116.1055189 34.93590504 117.20935453 35.87379858 118.3125 36.8125 C118.92738281 37.33457031 119.54226563 37.85664063 120.17578125 38.39453125 C124.71102989 42.38593851 124.71102989 42.38593851 126 45.125 C126.91202978 47.3530435 126.91202978 47.3530435 130 48 C131.30273438 49.41113281 131.30273438 49.41113281 132.59375 51.203125 C133.06683594 51.85410156 133.53992188 52.50507813 134.02734375 53.17578125 C134.51332031 53.86027344 134.99929688 54.54476562 135.5 55.25 C135.98597656 55.91902344 136.47195313 56.58804688 136.97265625 57.27734375 C144 67.02371424 144 67.02371424 144 70 C142.62714844 70.07347656 142.62714844 70.07347656 141.2265625 70.1484375 C139.44378906 70.26058594 139.44378906 70.26058594 137.625 70.375 C136.44164062 70.44460937 135.25828125 70.51421875 134.0390625 70.5859375 C130.89437681 70.70217346 130.89437681 70.70217346 129 73 C128.68765108 76.0764574 128.68765108 76.0764574 128.734375 79.6875 C128.73150482 80.67496216 128.73150482 80.67496216 128.72857666 81.68237305 C128.7272155 83.0743854 128.73090717 84.46641047 128.73925781 85.85839844 C128.749959 87.99182589 128.73936094 90.12441131 128.7265625 92.2578125 C128.72788411 93.60937686 128.73044653 94.9609407 128.734375 96.3125 C128.73775879 98.16294922 128.73775879 98.16294922 128.74121094 100.05078125 C128.69230233 103.12069578 128.69230233 103.12069578 131 105 C133.91188245 105.37268887 133.91188245 105.37268887 137.3203125 105.4140625 C138.57714844 105.45273438 139.83398438 105.49140625 141.12890625 105.53125 C142.44761719 105.5621875 143.76632812 105.593125 145.125 105.625 C146.46486918 105.66318029 147.80471383 105.70223206 149.14453125 105.7421875 C152.42954619 105.8367203 155.71455138 105.92227156 159 106 C162 119.5 162 119.5 162 124 C161.12674072 124.02505615 160.25348145 124.0501123 159.35375977 124.07592773 C156.12397448 124.17087709 152.89435846 124.27012029 149.66479492 124.37231445 C148.26510801 124.41571434 146.86536641 124.45738564 145.46557617 124.49731445 C143.45738505 124.55489445 141.44938851 124.61914 139.44140625 124.68359375 C138.23170166 124.72025146 137.02199707 124.75690918 135.77563477 124.79467773 C133.09294544 124.68938266 133.09294544 124.68938266 132 126 C131.8992188 128.36398468 131.86026785 130.69811311 131.8671875 133.0625 C131.86623077 133.76898682 131.86527405 134.47547363 131.86428833 135.20336914 C131.86360667 136.69970793 131.86545995 138.19604967 131.86962891 139.69238281 C131.87497743 141.99030157 131.86968349 144.28802486 131.86328125 146.5859375 C131.86394203 148.03645877 131.8652232 149.48697991 131.8671875 150.9375 C131.86415115 151.9749939 131.86415115 151.9749939 131.86105347 153.03344727 C131.59769267 156.29735638 131.59769267 156.29735638 133 159 C135.0708472 159.1584265 137.14678029 159.25124422 139.22265625 159.31640625 C141.11274414 159.37924805 141.11274414 159.37924805 143.04101562 159.44335938 C144.38150736 159.48317596 145.7220022 159.52288814 147.0625 159.5625 C148.40691523 159.60568042 149.7513166 159.64929456 151.09570312 159.69335938 C154.3970234 159.79985358 157.69842236 159.9018646 161 160 C160.52426554 165.59682925 159.68924607 170.69424592 157.9375 176.0625 C157.57527344 177.18785156 157.21304688 178.31320312 156.83984375 179.47265625 C156.56269531 180.30667969 156.28554688 181.14070312 156 182 C155.34402832 182.02505615 154.68805664 182.0501123 154.01220703 182.07592773 C151.04959817 182.1917326 148.08731969 182.31452886 145.125 182.4375 C144.09246094 182.47681641 143.05992187 182.51613281 141.99609375 182.55664062 C140.51689453 182.61948242 140.51689453 182.61948242 139.0078125 182.68359375 C138.09660645 182.72025146 137.18540039 182.75690918 136.24658203 182.79467773 C133.96516519 182.86577065 133.96516519 182.86577065 132 184 C131.67 190.27 131.34 196.54 131 203 C121.375 208 121.375 208 118 208 C117.98018066 207.34926514 117.96036133 206.69853027 117.93994141 206.02807617 C117.84470701 203.08080849 117.73502182 200.13425115 117.625 197.1875 C117.5940625 196.16333984 117.563125 195.13917969 117.53125 194.08398438 C117.49257813 193.10107422 117.45390625 192.11816406 117.4140625 191.10546875 C117.3826416 190.19949951 117.3512207 189.29353027 117.31884766 188.36010742 C117.13972081 185.73474608 117.13972081 185.73474608 115 183 C112.25714531 182.7082273 109.74342461 182.60394202 107 182.63671875 C106.20851563 182.63622025 105.41703125 182.63572174 104.6015625 182.63520813 C102.92705781 182.63755011 101.25254971 182.64728598 99.578125 182.66381836 C97.0100976 182.68740725 94.44310814 182.68438113 91.875 182.67773438 C90.24999379 182.68331112 88.62499196 182.69042098 87 182.69921875 C86.22914063 182.69830734 85.45828125 182.69739594 84.6640625 182.69645691 C80.36872359 182.60049695 80.36872359 182.60049695 77 185 C76.82511746 187.43744897 76.76822595 189.7593608 76.8046875 192.1953125 C76.80893234 193.25647781 76.80893234 193.25647781 76.81326294 194.33908081 C76.82446863 196.6012251 76.84957321 198.86297515 76.875 201.125 C76.88502933 202.65754637 76.89415526 204.19009894 76.90234375 205.72265625 C76.9227088 209.48204535 76.96185482 213.24058078 77 217 C83.27 217.33 89.54 217.66 96 218 C94.48440394 221.03119213 92.15578047 221.44405799 89.0859375 222.79296875 C88.48454453 223.06009171 87.88315155 223.32721466 87.26353455 223.60243225 C85.30375083 224.47126891 83.33999265 225.33051388 81.375 226.1875 C78.68761492 227.36059222 76.00115164 228.53572162 73.31640625 229.71484375 C72.66260483 230.00154938 72.00880341 230.288255 71.33518982 230.58364868 C68.02228568 232.05108967 64.79782743 233.58000549 61.65234375 235.37890625 C52.45949263 240.52905325 44.1810992 240.77123292 33.7434082 240.73925781 C32.65761475 240.73764648 31.57182129 240.73603516 30.453125 240.734375 C29.47504883 240.71600586 28.49697266 240.69763672 27.48925781 240.67871094 C24.9540604 240.79624529 24.9540604 240.79624529 23.17138672 242.38623047 C21.63676993 244.50040658 21.79567023 245.79237514 21.875 248.375 C21.70703125 250.76953125 21.70703125 250.76953125 21 253 C17.91645882 255.63524639 14.15026598 258 10 258 C9.96261719 257.02417969 9.92523438 256.04835938 9.88671875 255.04296875 C9.82097656 253.77066406 9.75523437 252.49835938 9.6875 251.1875 C9.62949219 249.92292969 9.57148438 248.65835938 9.51171875 247.35546875 C9.23190758 244.12250037 9.23190758 244.12250037 7.875 242.09375 C5.07015037 240.45758771 2.53084813 240.47182417 -0.6875 240.3125 C-3.8121875 240.1578125 -3.8121875 240.1578125 -7 240 C-7 232.74 -7 225.48 -7 218 C-3.74479167 217.86979167 -0.48958333 217.73958333 2.765625 217.609375 C6.61746952 216.88366516 7.61533104 216.05223587 10 213 C10.56446318 210.15620801 10.56446318 210.15620801 10.42578125 207.02734375 C10.41740234 205.88072266 10.40902344 204.73410156 10.40039062 203.55273438 C10.37138672 202.35970703 10.34238281 201.16667969 10.3125 199.9375 C10.30283203 198.74060547 10.29316406 197.54371094 10.28320312 196.31054688 C10.30011517 190.05420275 10.30011517 190.05420275 9 184 C4.38 183.34 -0.24 182.68 -5 182 C-5 174.74 -5 167.48 -5 160 C-2.265625 159.86979167 0.46875 159.73958333 3.203125 159.609375 C6.71593853 158.84401339 7.77410387 157.79435936 10 155 C10.61203372 152.17572842 10.61203372 152.17572842 10.53125 149.0625 C10.53640625 147.92039063 10.5415625 146.77828125 10.546875 145.6015625 C10.53140625 144.41304687 10.5159375 143.22453125 10.5 142 C10.51546875 140.81148437 10.5309375 139.62296875 10.546875 138.3984375 C10.54171875 137.25632813 10.5365625 136.11421875 10.53125 134.9375 C10.52673828 133.89464844 10.52222656 132.85179687 10.51757812 131.77734375 C9.87454475 128.32680241 8.72282701 127.14682019 6 125 C3.65961239 124.31466368 3.65961239 124.31466368 1.25 124.25 C-0.1525 124.1675 -1.555 124.085 -3 124 C-3 118.06 -3 112.12 -3 106 C1.95 105.01 1.95 105.01 7 104 C8.33570188 98.65719248 8.26376939 93.5495672 8.3125 88.0625 C8.34150391 86.97775391 8.37050781 85.89300781 8.40039062 84.77539062 C8.46909062 78.54271594 8.46909062 78.54271594 6.29296875 72.80859375 C3.81002597 70.56915467 3.81002597 70.56915467 -1 70 C-1 62.74 -1 55.48 -1 48 C1.31 47.34 3.62 46.68 6 46 C9.17390613 41.23914081 8.36872065 36.16054275 8.375 30.5625 C8.39949219 29.41716797 8.42398438 28.27183594 8.44921875 27.09179688 C8.45308594 25.99029297 8.45695313 24.88878906 8.4609375 23.75390625 C8.46915527 22.74658447 8.47737305 21.7392627 8.48583984 20.70141602 C7.86552792 17.25229467 6.75380311 16.11120869 4 14 C2.68 13.67 1.36 13.34 0 13 C0 8.71 0 4.42 0 0 Z " fill="#1AA71A" transform="translate(180,107)"/>
<path d="M0 0 C4.54509104 1.5293501 8.10882832 4.07154582 11.9375 6.875 C19.63577853 12.40351643 27.47762836 17.69952064 35.375 22.9375 C47.91077185 31.25983314 60.40336907 39.64435047 72.875 48.0625 C73.78739441 48.67825897 74.69978882 49.29401794 75.63983154 49.92843628 C81.19569239 53.67819401 86.750756 57.42913121 92.30554199 61.18048096 C97.40847532 64.62640007 102.51224718 68.07107689 107.61595154 71.51585388 C111.69966988 74.27221067 115.78324889 77.02877323 119.86645508 79.78588867 C128.84648504 85.84912583 137.82975996 91.90751054 146.81640625 97.9609375 C149.77175992 99.95218321 152.72707076 101.94349248 155.68237305 103.93481445 C157.58317466 105.21528156 159.48421147 106.49539958 161.38549805 107.77514648 C164.02971474 109.55496651 166.67313341 111.33596613 169.31640625 113.1171875 C170.09375626 113.63993256 170.87110626 114.16267761 171.67201233 114.70126343 C175.11241148 117.0210857 178.52898421 119.36332875 181.89819336 121.78564453 C187.83113605 126.02112586 192.80351935 126.8316426 200 126 C206.96238742 124.22208041 211.87127362 118.65896896 216.92578125 113.86328125 C219.67657482 111.26602837 222.5460109 108.86574884 225.5 106.5 C229.47629157 103.30068494 233.26670522 99.9741715 237 96.5 C241.58760113 92.23081848 246.33442728 88.24241483 251.21875 84.3125 C254.24019484 81.80028744 257.12438383 79.17595912 260 76.5 C264.6196449 72.20192883 269.39237294 68.1695389 274.3125 64.21484375 C278.02650911 61.15402519 281.56518957 57.91540079 285.1015625 54.65234375 C287 53 287 53 288 53 C288.11679865 70.9065455 288.20497104 88.81299215 288.25906086 106.71983624 C288.28484322 115.03430095 288.31999411 123.34852899 288.37719727 131.6628418 C288.42703156 138.90956604 288.45929079 146.15611888 288.47044247 153.40300971 C288.47696131 157.24032643 288.49228219 161.0771528 288.52865028 164.91431236 C288.56261077 168.52674484 288.57305324 172.13848544 288.56553841 175.75106239 C288.56756797 177.70754448 288.59446308 179.66395134 288.62210083 181.62023926 C288.57154419 190.21164604 288.57154419 190.21164604 285.66786194 194.21681213 C282.5662515 196.2899157 279.43206553 197.94002549 276.0078125 199.390625 C275.32269089 199.69211456 274.63756927 199.99360413 273.9316864 200.30422974 C271.66749379 201.29733742 269.39643863 202.27359307 267.125 203.25 C265.51084963 203.95418232 263.89717038 204.65944542 262.28393555 205.36572266 C258.04064204 207.22031417 253.79152036 209.06115895 249.54107666 210.89929199 C245.48580758 212.65589667 241.43628352 214.42560648 237.38671875 216.1953125 C232.59585372 218.28810031 227.80440596 220.37949645 223.00976562 222.46362305 C214.15035373 226.31465741 205.29856064 230.18228014 196.45703125 234.07421875 C195.50550674 234.49290222 194.55398224 234.91158569 193.57362366 235.34295654 C188.94233597 237.38108883 184.31198038 239.42130262 179.68286133 241.46435547 C178.02037602 242.19635941 176.35786135 242.92829664 174.6953125 243.66015625 C173.92753983 243.99987961 173.15976715 244.33960297 172.36872864 244.68962097 C167.11346652 247 167.11346652 247 166 247 C165.86214094 242.58276584 166.19059284 238.58331943 167.06762695 234.25488281 C169.00240986 224.44440821 169.3101798 214.71277909 169.3125 204.75 C169.31572266 204.08171173 169.31894531 203.41342346 169.32226562 202.72488403 C169.43497849 164.4394955 155.74910367 130.73580603 129.4375 103.0625 C110.38400218 84.59257026 86.91178304 73.37287726 62 65 C61.22849609 64.73606445 60.45699219 64.47212891 59.66210938 64.20019531 C39.48185351 57.39693344 18.06269567 55.32523938 -3 53 C-2.88191305 46.71935499 -2.75709447 40.43886912 -2.62768555 34.15844727 C-2.58448277 32.02371218 -2.54279789 29.88894579 -2.50268555 27.75415039 C-2.44462646 24.67845241 -2.38103616 21.60290984 -2.31640625 18.52734375 C-2.29969376 17.57915268 -2.28298126 16.63096161 -2.26576233 15.65403748 C-1.96247526 1.96247526 -1.96247526 1.96247526 0 0 Z " fill="#F0B936" transform="translate(190,35)"/>
<path d="M0 0 C7.42869106 0.58953135 14.7493111 1.48862909 22.10546875 2.671875 C23.13381836 2.8343573 24.16216797 2.9968396 25.22167969 3.16424561 C27.41059623 3.51052907 29.59926157 3.85840376 31.78768921 4.20776367 C35.25340276 4.76051084 38.71996036 5.30767264 42.18676758 5.85351562 C51.53546709 7.32732759 60.88306263 8.80505127 70.21875 10.359375 C107.06987137 16.43714925 144.31835917 20.47591403 181.42025757 24.70391846 C189.81391373 25.66177268 198.20580161 26.63498673 206.59777832 27.60742188 C210.23116177 28.02667347 213.86508269 28.44107709 217.49902344 28.85546875 C223.90820433 29.58891459 230.31416118 30.34662862 236.71871948 31.11935425 C239.17738538 31.41233937 241.63696937 31.69773022 244.09744263 31.97512817 C247.50391776 32.36038342 250.90610572 32.77258534 254.30859375 33.19140625 C255.32057831 33.29964722 256.33256287 33.40788818 257.37521362 33.51940918 C265.03327697 34.50750382 265.03327697 34.50750382 268.16821289 37.61303711 C269.07494751 38.79458374 269.07494751 38.79458374 270 40 C261.66037006 48.43195056 252.92815302 56.36348294 243.6796875 63.7890625 C240.86746685 66.1093495 238.18202737 68.53071134 235.5 71 C231.94329756 74.27418423 228.32838189 77.40642433 224.5625 80.4375 C220.02683557 84.09571015 215.7429883 87.94742965 211.48071289 91.91381836 C207.40219622 95.6867591 203.13872473 99.18236067 198.80859375 102.6640625 C195.10526304 105.74416231 191.57394077 108.99156 188.05859375 112.28320312 C186.71732882 113.53468393 185.35920707 114.76802925 184 116 C183.34902344 116.60070312 182.69804687 117.20140625 182.02734375 117.8203125 C179.05193824 119.55166599 177.44085751 119.43041498 174 119 C170.92024038 117.40903149 168.18329029 115.39116091 165.38671875 113.3515625 C163.68211262 112.14656251 161.97685068 110.94248979 160.27099609 109.73925781 C158.96071442 108.80587585 158.96071442 108.80587585 157.6239624 107.8536377 C153.50935907 104.94697111 149.32784344 102.14238034 145.14453125 99.3359375 C143.45491098 98.19751365 141.76546063 97.05883759 140.07617188 95.91992188 C139.21950928 95.34298584 138.36284668 94.7660498 137.48022461 94.17163086 C133.74967232 91.65921809 130.02013048 89.14530693 126.29049683 86.63153076 C124.35949788 85.3300625 122.42844723 84.02867092 120.49734497 82.72735596 C110.99463749 76.3235568 101.49699859 69.91226116 92 63.5 C80.70781509 55.87590902 69.41351961 48.25496807 58.115448 40.63960266 C50.88721351 35.76730223 43.66105902 30.89192595 36.43582153 26.0151825 C31.69966207 22.81912754 26.9604417 19.62770548 22.2175293 16.44168091 C19.54547559 14.64578304 16.87575997 12.84643411 14.20666504 11.04614258 C12.99836671 10.23234298 11.7889966 9.42013216 10.57849121 8.60961914 C8.9532177 7.52119339 7.33194375 6.42680217 5.7109375 5.33203125 C4.36974854 4.43061401 4.36974854 4.43061401 3.00146484 3.51098633 C1 2 1 2 0 0 Z " fill="#F0B836" transform="translate(208,29)"/>
<path d="M0 0 C2.51179028 1.63056291 4.10512787 3.73471501 5.875 6.125 C6.62680542 7.069198 6.62680542 7.069198 7.39379883 8.0324707 C8.95475933 10.00308839 10.47716895 11.99984171 12 14 C12.96183169 15.22242806 13.92659419 16.44255681 14.89453125 17.66015625 C16.75069742 19.99969902 18.59384063 22.34847369 20.42578125 24.70703125 C23.40719369 28.53617592 26.48024199 32.28691035 29.5625 36.03515625 C36.60553329 44.6019227 43.61779655 53.19147631 50.4375 61.9375 C55.12083548 67.94281414 59.95081116 73.81849659 64.80834961 79.68334961 C68.89352368 84.62656106 72.88239481 89.63360754 76.81860352 94.69580078 C80.43696268 99.33019783 84.17828967 103.85453423 87.9375 108.375 C92.66217552 114.07737392 97.27923424 119.84598952 101.75 125.75 C102.25136475 126.40532715 102.75272949 127.0606543 103.26928711 127.73583984 C107.5046035 133.39324942 109.6159484 137.73180886 109 145 C107.59436387 152.05601502 103.72527882 155.88779577 98 160 C94.0534364 162.49256648 90.25474879 162.27624798 85.74121094 161.65429688 C77.63147805 159.71859291 72.05204613 153.33064778 67.125 147 C66.2268457 145.87851562 66.2268457 145.87851562 65.31054688 144.734375 C63.52654563 142.50009868 61.76075247 140.2526226 60 138 C59.04966984 136.7915167 58.09916343 135.58317197 57.1484375 134.375 C55.8240243 132.68911926 54.50148795 131.00191032 53.18408203 129.31054688 C49.53700882 124.63910446 45.78018998 120.06409329 42 115.5 C37.28696152 109.80855537 32.65546999 104.06675353 28.11328125 98.23828125 C24.63146131 93.77910835 21.07757644 89.38260975 17.5 85 C13.46789056 80.06057733 9.48194478 75.09176728 5.5625 70.0625 C0.80893694 63.96796321 -4.08843825 57.99905223 -9.01269531 52.04199219 C-12.70724117 47.57222412 -16.39012126 43.0965053 -19.9765625 38.5390625 C-21.6118189 36.48709984 -23.27574492 34.47147325 -24.9609375 32.4609375 C-25.99501608 31.20330949 -27.0288711 29.94549763 -28.0625 28.6875 C-28.56483154 28.10009033 -29.06716309 27.51268066 -29.5847168 26.9074707 C-31.63651585 24.3821518 -32.98295541 22.71054655 -33.0625 19.39453125 C-29.11673644 10.50205676 -20.67522088 4.53573699 -12.0625 0.6875 C-7.95002399 -0.2357089 -4.18326338 -0.73986929 0 0 Z " fill="#050505" transform="translate(306,382)"/>
<path d="M0 0 C2.7311293 -0.30428811 5.23173859 -0.42005639 7.96484375 -0.3984375 C8.75395645 -0.40130768 9.54306915 -0.40417786 10.35609436 -0.40713501 C12.02638465 -0.409178 13.69669873 -0.40363169 15.36694336 -0.39111328 C17.92421049 -0.3750833 20.47989206 -0.39094202 23.03710938 -0.41015625 C24.65885766 -0.40817344 26.28060496 -0.40432898 27.90234375 -0.3984375 C28.66804184 -0.40451019 29.43373993 -0.41058289 30.22264099 -0.4168396 C33.10862777 -0.37862 35.42676205 -0.31914837 37.98120117 1.10302734 C39.53387875 3.99406612 39.3893984 6.48559411 39.3984375 9.75 C39.40130768 10.40452148 39.40417786 11.05904297 39.40713501 11.73339844 C39.40917368 13.11524319 39.40365746 14.49711693 39.39111328 15.87890625 C39.37505436 17.9928445 39.39096601 20.10487113 39.41015625 22.21875 C39.40817378 23.56250422 39.40433002 24.90625724 39.3984375 26.25 C39.39505371 27.47203125 39.39166992 28.6940625 39.38818359 29.953125 C39 33 39 33 37.98120117 34.89697266 C34.78769054 36.67494937 31.46297158 36.42667657 27.90234375 36.3984375 C27.11227432 36.40130768 26.3222049 36.40417786 25.50819397 36.40713501 C23.83968386 36.40917499 22.1711498 36.40364967 20.50268555 36.39111328 C17.94330675 36.37503648 15.38550198 36.39097419 12.82617188 36.41015625 C11.20572567 36.40817422 9.58528045 36.40433139 7.96484375 36.3984375 C6.81326027 36.40754654 6.81326027 36.40754654 5.63841248 36.4168396 C3.48413086 36.38818359 3.48413086 36.38818359 0 36 C-2.4286032 32.3570952 -2.25761901 30.58696159 -2.265625 26.25 C-2.26753845 25.59547852 -2.2694519 24.94095703 -2.27142334 24.26660156 C-2.27278245 22.88476171 -2.26910513 21.50290897 -2.26074219 20.12109375 C-2.25003809 18.0075204 -2.26064601 15.89479695 -2.2734375 13.78125 C-2.27211586 12.43749813 -2.26955336 11.09374678 -2.265625 9.75 C-2.26336914 8.52796875 -2.26111328 7.3059375 -2.25878906 6.046875 C-2 3 -2 3 0 0 Z " fill="#000100" transform="translate(256,177)"/>
<path d="M0 0 C1.11877281 0.00607269 1.11877281 0.00607269 2.26014709 0.01226807 C3.41052208 0.00939789 3.41052208 0.00939789 4.58413696 0.00646973 C6.20734485 0.00510783 7.83056361 0.00880462 9.45375061 0.01715088 C11.93829365 0.02783604 14.42211122 0.01726364 16.90663147 0.00445557 C18.48280494 0.00577745 20.05897796 0.00834043 21.63514709 0.01226807 C22.37897141 0.0082196 23.12279572 0.00417114 23.88916016 0 C27.6401276 0.03407175 29.3131763 0.14397504 32.51405334 2.27789307 C32.8863678 5.41070557 32.8863678 5.41070557 32.87733459 9.40289307 C32.87808235 10.45694336 32.87808235 10.45694336 32.87884521 11.5322876 C32.87650396 13.01848172 32.86677223 14.50467974 32.85023499 15.99078369 C32.826644 18.26913811 32.82967268 20.5463226 32.83631897 22.82476807 C32.79312591 33.9988205 32.79312591 33.9988205 30.51405334 36.27789307 C27.81270012 36.4776304 25.21608123 36.5577088 22.51405334 36.54351807 C21.72256897 36.54543152 20.93108459 36.54734497 20.11561584 36.54931641 C18.44113345 36.55067824 16.76664049 36.54698188 15.09217834 36.53863525 C12.52422953 36.52793547 9.95698031 36.53853032 7.38905334 36.55133057 C5.7640518 36.55000897 4.13905068 36.54744658 2.51405334 36.54351807 C1.35776428 36.54959076 1.35776428 36.54959076 0.17811584 36.55578613 C-5.25602533 36.50781439 -5.25602533 36.50781439 -7.48594666 34.27789307 C-7.74473572 31.14508057 -7.74473572 31.14508057 -7.75157166 27.15289307 C-7.75348511 26.45019287 -7.75539856 25.74749268 -7.75737 25.02349854 C-7.75873141 23.53732953 -7.75503798 22.05114862 -7.74668884 20.56500244 C-7.73598819 18.28673661 -7.74658505 16.0092593 -7.75938416 13.73101807 C-7.75806255 12.28830799 -7.75550014 10.8455984 -7.75157166 9.40289307 C-7.7493158 8.08547119 -7.74705994 6.76804932 -7.74473572 5.41070557 C-7.2939137 -0.04679271 -4.9214829 0.04490803 0 0 Z " fill="#000100" transform="translate(264.48594665527344,230.72210693359375)"/>
<path d="M0 0 C0.66914429 -0.00478363 1.33828857 -0.00956726 2.02770996 -0.01449585 C3.43630334 -0.01788406 4.84497652 -0.00875672 6.25341797 0.01220703 C8.40120886 0.03899961 10.54377653 0.01243484 12.69140625 -0.01953125 C14.06511562 -0.01622695 15.43882176 -0.00982026 16.8125 0 C18.05322266 0.00563965 19.29394531 0.0112793 20.57226562 0.01708984 C24.85645831 0.84845412 26.32753094 2.18156152 28.90625 5.6640625 C29.55322266 8.5390625 29.55322266 8.5390625 29.5703125 11.6640625 C29.57998047 13.365625 29.57998047 13.365625 29.58984375 15.1015625 C29.57050781 16.2771875 29.55117187 17.4528125 29.53125 18.6640625 C29.55058594 19.8396875 29.56992188 21.0153125 29.58984375 22.2265625 C29.58339844 23.3609375 29.57695312 24.4953125 29.5703125 25.6640625 C29.56185303 27.2109375 29.56185303 27.2109375 29.55322266 28.7890625 C28.65672179 32.77290938 27.15651049 34.23744197 23.90625 36.6640625 C20.57226562 37.31103516 20.57226562 37.31103516 16.8125 37.328125 C16.14335571 37.33290863 15.47421143 37.33769226 14.78479004 37.34262085 C13.37619666 37.34600906 11.96752348 37.33688172 10.55908203 37.31591797 C8.41129114 37.28912539 6.26872347 37.31569016 4.12109375 37.34765625 C2.74738438 37.34435195 1.37367824 37.33794526 0 37.328125 C-1.24072266 37.32248535 -2.48144531 37.3168457 -3.75976562 37.31103516 C-8.04395831 36.47967088 -9.51503094 35.14656348 -12.09375 31.6640625 C-12.74072266 28.7890625 -12.74072266 28.7890625 -12.7578125 25.6640625 C-12.76425781 24.5296875 -12.77070313 23.3953125 -12.77734375 22.2265625 C-12.75800781 21.0509375 -12.73867187 19.8753125 -12.71875 18.6640625 C-12.73808594 17.4884375 -12.75742188 16.3128125 -12.77734375 15.1015625 C-12.77089844 13.9671875 -12.76445312 12.8328125 -12.7578125 11.6640625 C-12.75217285 10.6328125 -12.7465332 9.6015625 -12.74072266 8.5390625 C-11.17212136 1.5685535 -6.57011467 0.02986416 0 0 Z " fill="#000100" transform="translate(212.09375,230.3359375)"/>
<path d="M0 0 C0.67055923 -0.0038269 1.34111847 -0.00765381 2.03199768 -0.01159668 C3.44655869 -0.01431163 4.86117026 -0.00697932 6.27563477 0.00976562 C8.43165074 0.03115323 10.58432269 0.00997322 12.74023438 -0.015625 C14.11849689 -0.01298099 15.49675733 -0.00785447 16.875 0 C18.1220874 0.00451172 19.3691748 0.00902344 20.65405273 0.01367188 C24.66474847 0.6333552 26.32047049 1.49386508 29.00390625 4.53125 C29.61914062 7.50805664 29.61914062 7.50805664 29.59765625 10.94140625 C29.59507812 12.17826172 29.5925 13.41511719 29.58984375 14.68945312 C29.54730469 16.62208008 29.54730469 16.62208008 29.50390625 18.59375 C29.50777344 20.53217773 29.50777344 20.53217773 29.51171875 22.50976562 C29.41272254 31.99855214 29.41272254 31.99855214 27.59960938 34.36108398 C22.79848551 37.88185918 16.55257034 36.79494184 10.828125 36.82641602 C8.64389315 36.84363187 6.4611745 36.88752034 4.27734375 36.93164062 C2.88672987 36.94176777 1.49610314 36.95028381 0.10546875 36.95703125 C-1.15958496 36.97161377 -2.42463867 36.98619629 -3.72802734 37.0012207 C-6.99609375 36.53125 -6.99609375 36.53125 -9.40673828 34.90307617 C-11.46992156 31.82414752 -11.51255607 29.84894395 -11.52734375 26.15625 C-11.5325 24.92390625 -11.53765625 23.6915625 -11.54296875 22.421875 C-11.5275 21.13796875 -11.51203125 19.8540625 -11.49609375 18.53125 C-11.5115625 17.24734375 -11.52703125 15.9634375 -11.54296875 14.640625 C-11.5378125 13.40828125 -11.53265625 12.1759375 -11.52734375 10.90625 C-11.52283203 9.77960938 -11.51832031 8.65296875 -11.51367188 7.4921875 C-10.99609375 4.53125 -10.99609375 4.53125 -9.40014648 2.16601562 C-6.14866986 -0.04500169 -3.91553925 0.01417848 0 0 Z " fill="#000100" transform="translate(208.99609375,176.46875)"/>
<path d="M0 0 C0.717323 -0.0038269 1.434646 -0.00765381 2.17370605 -0.01159668 C3.68661914 -0.01431227 5.19957945 -0.00697555 6.71240234 0.00976562 C9.02417976 0.03118449 11.33285013 0.00995649 13.64453125 -0.015625 C15.11719434 -0.01298166 16.5898555 -0.00785653 18.0625 0 C18.75114136 -0.00809692 19.43978271 -0.01619385 20.14929199 -0.02453613 C23.37387336 0.03825824 25.27955851 0.35896554 27.96264648 2.19555664 C31.01619706 6.74237662 30.14280381 12.16805298 30.09375 17.46875 C30.12952148 19.23895508 30.12952148 19.23895508 30.16601562 21.04492188 C30.16408203 22.18380859 30.16214844 23.32269531 30.16015625 24.49609375 C30.16088135 25.5337085 30.16160645 26.57132324 30.16235352 27.64038086 C29.28590572 31.65508816 27.81493761 33.10408112 24.53125 35.53125 C21.07373047 36.14648438 21.07373047 36.14648438 17.1484375 36.125 C16.45235382 36.12504028 15.75627014 36.12508057 15.03909302 36.12512207 C13.5749605 36.11978279 12.11082717 36.10226772 10.64697266 36.07324219 C8.40568721 36.03123945 6.16739549 36.03218789 3.92578125 36.0390625 C-6.86775792 35.95966147 -6.86775792 35.95966147 -9.35107422 34.18945312 C-12.68807003 29.23862841 -11.73316471 22.80948848 -11.78125 17.09375 C-11.81025391 15.94841797 -11.83925781 14.80308594 -11.86914062 13.62304688 C-11.87751953 12.52154297 -11.88589844 11.42003906 -11.89453125 10.28515625 C-11.90911377 9.27783447 -11.92369629 8.2705127 -11.9387207 7.23266602 C-11.46875 4.53125 -11.46875 4.53125 -9.90893555 2.20483398 C-6.64853998 -0.03128524 -3.82046991 -0.04492041 0 0 Z " fill="#000000" transform="translate(211.46875,289.46875)"/>
<path d="M0 0 C1.04269043 -0.00218285 1.04269043 -0.00218285 2.10644531 -0.00440979 C3.57230838 -0.00275395 5.03818939 0.0087724 6.50390625 0.02954102 C8.74294147 0.05850245 10.9796079 0.0501448 13.21875 0.03710938 C14.6458448 0.04334731 16.07293214 0.05173869 17.5 0.0625 C19.44132812 0.0771228 19.44132812 0.0771228 21.421875 0.09204102 C24.96637385 0.52236273 26.45594734 0.76499428 28.75 3.49609375 C29.26757812 6.45117188 29.26757812 6.45117188 29.28125 10.02734375 C29.28898437 11.95513672 29.28898437 11.95513672 29.296875 13.921875 C29.28849609 14.59041504 29.28011719 15.25895508 29.27148438 15.94775391 C29.25006585 17.98981556 29.27128292 20.02836013 29.296875 22.0703125 C29.29171875 23.35550781 29.2865625 24.64070313 29.28125 25.96484375 C29.27673828 27.14498047 29.27222656 28.32511719 29.26757812 29.54101562 C28.75 32.49609375 28.75 32.49609375 27.16992188 34.37719727 C23.85418286 35.91029169 21.14935233 35.90219923 17.5 35.9296875 C16.45730957 35.93755028 16.45730957 35.93755028 15.39355469 35.9455719 C13.92774793 35.95197904 12.46188967 35.95067197 10.99609375 35.94213867 C8.75688013 35.93361992 6.52021228 35.96241543 4.28125 35.99414062 C2.85416743 35.99575266 1.42708035 35.99517506 0 35.9921875 C-1.29421875 35.99404053 -2.5884375 35.99589355 -3.921875 35.99780273 C-7.25 35.49609375 -7.25 35.49609375 -9.66992188 33.84985352 C-11.69221526 30.8373488 -11.7662162 28.95439877 -11.78125 25.33984375 C-11.78640625 24.15261719 -11.7915625 22.96539062 -11.796875 21.7421875 C-11.78140625 20.50597656 -11.7659375 19.26976562 -11.75 17.99609375 C-11.76546875 16.75988281 -11.7809375 15.52367187 -11.796875 14.25 C-11.79171875 13.06277344 -11.7865625 11.87554687 -11.78125 10.65234375 C-11.77673828 9.56759766 -11.77222656 8.48285156 -11.76757812 7.36523438 C-11.25 4.49609375 -11.25 4.49609375 -9.66992188 2.14233398 C-6.34311952 -0.12084482 -4.0046595 -0.00573376 0 0 Z " fill="#000000" transform="translate(209.25,119.50390625)"/>
</svg>
